<svg xmlns="http://www.w3.org/2000/svg" width="1240" height="566" viewBox="0 0 12400 5660"><g id="l3p56PLy4KSOgUbOgUYCvM6" fill="rgb(222,255,22)" style="transform: none;"><g><path id="p14pqEXa3q" d="M5595 5541 c-107 -61 -112 -155 -16 -305 17 -28 31 -59 31 -69 0 -13 5 -17 14 -14 27 11 89 -80 119 -173 22 -71 37 -98 92 -164 35 -43 77 -90 92 -105 16 -15 46 -47 67 -71 l40 -44 -100 -94 c-154 -146 -190 -172 -233 -172 -21 0 -40 3 -44 6 -3 4 32 49 79 101 47 52 89 105 94 119 15 38 12 111 -5 144 -18 34 -20 35 -77 16 -24 -8 -79 -16 -123 -19 -47 -3 -110 -16 -154 -31 -84 -29 -283 -125 -386 -185 -38 -23 -80 -41 -92 -41 -26 0 -73 20 -73 31 0 4 24 20 53 37 28 16 63 39 77 50 l25 21 -42 42 c-47 46 -48 49 -32 94 10 25 8 55 -5 138 -9 58 -16 132 -16 165 0 74 -23 109 -78 117 -74 12 -118 27 -144 53 -31 29 -34 54 -17 130 22 96 -15 152 -102 152 -28 0 -69 -5 -91 -12 -33 -10 -47 -9 -89 6 -63 23 -109 15 -143 -24 -30 -36 -45 -114 -27 -143 8 -12 11 -44 9 -80 l-3 -61 40 -8 c64 -14 146 -102 170 -183 13 -42 12 -45 -15 -82 -33 -43 -37 -77 -15 -138 8 -22 15 -59 15 -83 0 -48 39 -133 89 -196 54 -68 54 -118 -2 -160 -18 -14 -73 -46 -122 -71 -240 -125 -356 -186 -419 -219 -67 -35 -95 -59 -96 -83 0 -6 36 -48 80 -92 l81 -81 58 29 c104 53 156 61 403 61 295 0 331 -10 528 -152 113 -80 155 -132 242 -295 32 -60 67 -124 77 -143 44 -81 54 -146 47 -290 -6 -131 -6 -137 19 -185 30 -59 31 -86 7 -108 -37 -34 -66 -22 -131 54 -111 129 -131 139 -264 139 -132 0 -167 7 -167 34 0 19 13 26 88 49 98 30 171 34 270 13 45 -10 62 -10 62 -2 -1 34 -42 193 -56 214 -9 13 -28 62 -44 108 -32 97 -64 144 -113 167 -22 11 -40 30 -52 58 -26 57 -79 99 -212 165 l-114 58 -174 4 c-95 3 -204 1 -241 -3 -61 -6 -72 -11 -106 -45 -32 -32 -38 -44 -38 -81 0 -29 8 -58 25 -84 18 -30 24 -54 25 -98 1 -164 -51 -323 -135 -411 -133 -139 -361 -247 -646 -305 -70 -15 -75 -27 -42 -107 53 -128 102 -273 118 -353 17 -83 43 -161 86 -256 16 -35 25 -78 29 -145 5 -66 13 -109 28 -143 31 -64 210 -285 294 -360 68 -62 187 -141 263 -175 35 -16 186 -61 255 -76 46 -10 60 -59 60 -212 0 -198 26 -346 73 -416 47 -69 121 -94 132 -44 3 11 6 83 8 158 l2 137 48 -30 c37 -23 52 -27 62 -19 7 6 32 57 55 114 50 127 67 144 135 143 61 -1 115 31 164 97 18 24 46 53 62 65 27 20 30 21 36 4 26 -74 49 -126 81 -183 87 -157 133 -214 336 -415 66 -67 139 -145 161 -174 73 -98 86 -111 125 -122 51 -15 107 11 134 62 l20 36 -27 124 c-15 68 -27 141 -27 162 0 76 141 404 186 434 39 25 192 -33 394 -150 59 -34 170 -61 355 -88 195 -28 301 -27 615 6 108 12 171 32 303 99 244 124 308 165 399 258 102 102 124 109 176 55 18 -18 32 -37 32 -41 0 -5 -29 -40 -65 -77 -36 -38 -65 -74 -65 -80 0 -6 -23 -60 -51 -121 -47 -100 -51 -114 -47 -168 5 -72 32 -110 123 -174 96 -67 101 -69 140 -56 52 17 183 162 232 256 42 81 73 179 73 232 0 16 9 40 19 53 l19 24 31 -29 c32 -30 121 -192 121 -219 0 -9 -14 -29 -31 -46 -24 -24 -39 -31 -69 -31 l-39 0 -57 -115 c-64 -130 -64 -127 2 -203 31 -36 34 -37 100 -37 85 0 151 30 243 109 73 64 116 81 177 72 24 -3 44 -4 44 -2 0 3 -11 26 -25 53 -28 58 -51 80 -85 85 -22 3 -27 13 -52 113 -51 204 -133 326 -253 378 -182 78 -221 99 -266 147 -54 57 -83 112 -83 156 0 29 26 79 78 150 21 30 103 301 155 513 27 111 45 374 38 576 -6 196 -3 189 -184 551 l-135 271 16 37 c9 21 28 48 43 59 76 60 226 203 240 231 40 76 7 200 -97 370 -69 113 -94 197 -94 317 -1 109 7 125 77 160 20 11 37 26 37 34 0 15 -36 54 -157 168 l-73 69 25 36 c14 20 25 45 25 55 0 28 -25 69 -65 107 -52 49 -67 82 -55 115 15 39 12 64 -11 112 -36 74 -115 101 -198 67 l-38 -15 -59 41 c-54 38 -63 41 -111 38 -61 -5 -116 -39 -137 -83 -21 -43 -30 -137 -18 -176 6 -19 15 -52 21 -74 6 -22 32 -74 59 -115 27 -41 68 -108 92 -149 23 -41 67 -100 96 -133 36 -38 54 -66 54 -83 0 -14 -21 -78 -46 -143 -25 -64 -59 -153 -74 -198 -37 -108 -50 -130 -111 -192 -55 -57 -100 -81 -191 -101 -35 -7 -82 -28 -116 -51 -48 -32 -65 -52 -92 -104 -30 -61 -33 -76 -42 -208 -11 -163 -12 -171 -34 -166 -11 2 -29 43 -56 128 -35 109 -39 134 -36 196 8 129 74 220 185 254 36 11 82 20 102 20 101 0 174 54 187 137 6 40 4 49 -11 58 -10 5 -93 60 -184 121 -91 61 -211 137 -266 168 -97 56 -280 126 -330 126 -46 0 -35 19 19 35 60 17 46 19 216 -29 85 -25 117 -21 134 13 l15 29 -95 93 c-53 52 -101 103 -107 114 -6 11 -14 62 -17 113 -5 83 -8 95 -32 119 -20 20 -39 27 -80 31 -48 4 -58 1 -87 -24 -18 -15 -43 -51 -56 -81 -13 -29 -28 -53 -34 -53 -11 0 -51 120 -51 154 0 91 -54 140 -130 117 -56 -16 -67 -43 -51 -118 19 -87 33 -109 193 -305 42 -52 72 -113 63 -129 -4 -5 -21 -7 -38 -5 -18 3 -121 8 -229 12 l-198 6 -30 -30 c-22 -23 -30 -40 -30 -66 0 -20 -9 -50 -20 -68 -29 -47 -26 -66 27 -159 125 -221 213 -454 213 -563 0 -73 -51 -319 -68 -330 -4 -2 -24 -7 -44 -11 l-36 -7 -7 44 c-4 29 1 72 16 133 17 74 20 106 15 183 -6 89 -24 184 -42 227 -5 11 -28 52 -51 90 -41 68 -163 359 -163 386 0 8 9 40 20 72 l20 59 -33 61 c-29 58 -82 126 -170 221 -19 21 -38 50 -42 64 -9 35 10 75 45 96 17 9 33 28 36 41 8 32 -13 120 -40 169 -55 101 -212 100 -296 -2 l-30 -36 -47 46 c-64 63 -121 88 -203 88 -53 0 -74 -5 -115 -29z m-704 -1326 c126 -19 382 -104 494 -165 175 -96 479 -347 561 -464 19 -28 55 -80 80 -115 25 -35 64 -109 86 -165 85 -216 81 -193 79 -386 -3 -219 -8 -211 147 -221 142 -10 202 -26 391 -104 208 -86 305 -241 304 -485 -1 -129 -12 -174 -66 -249 -19 -25 -53 -95 -77 -156 -23 -60 -54 -132 -67 -158 -27 -55 -95 -133 -123 -142 -10 -3 -58 -58 -108 -123 -108 -140 -167 -202 -194 -202 -27 0 -58 18 -58 34 0 7 39 53 88 101 226 230 384 482 467 748 24 76 27 99 23 190 -3 91 -7 111 -35 168 -81 163 -168 210 -519 274 -116 22 -166 12 -299 -56 -130 -66 -187 -64 -260 11 -33 34 -37 42 -25 50 8 5 24 10 35 10 44 1 220 51 238 68 16 16 18 39 19 223 2 248 -9 308 -81 428 -27 44 -97 134 -155 199 -59 66 -123 143 -143 170 -21 31 -60 67 -98 92 -34 22 -70 49 -80 60 -34 37 -204 141 -277 170 -108 41 -196 57 -445 80 -174 17 -221 24 -230 37 -7 9 -13 20 -13 24 0 8 136 57 175 62 57 7 70 7 166 -8z m-176 -1566 c69 -17 119 -67 139 -137 31 -111 14 -194 -52 -264 -33 -35 -119 -68 -179 -68 -40 0 -50 5 -88 43 -55 55 -88 154 -89 272 -1 98 14 135 64 152 45 15 148 16 205 2z m-703 -160 c60 -16 88 -47 104 -114 18 -78 18 -129 -2 -194 -30 -104 -122 -169 -224 -159 -43 4 -58 12 -92 44 -48 47 -86 119 -94 177 -6 49 14 122 48 174 45 68 160 100 260 72z m891 -610 c15 -23 2 -62 -37 -108 -19 -23 -37 -54 -41 -70 -7 -33 -39 -71 -61 -71 -50 0 -161 95 -189 163 -18 44 -15 53 22 60 37 7 52 -7 59 -54 13 -76 65 -77 117 -2 57 82 79 104 100 101 11 -2 24 -10 30 -19z m-1065 -45 c12 -8 22 -22 22 -31 0 -28 31 -53 66 -53 24 0 45 11 79 40 83 72 109 73 103 6 -3 -25 -20 -43 -98 -102 l-95 -73 -35 38 c-19 21 -55 61 -79 90 -39 47 -42 55 -32 77 12 28 37 31 69 8z m1863 -169 c12 -26 19 -63 19 -103 0 -35 5 -73 11 -85 18 -33 144 -199 168 -221 30 -27 26 -43 -15 -56 -40 -14 -101 -6 -125 16 -9 8 -47 76 -85 150 -69 135 -69 136 -69 217 0 69 4 88 24 121 23 36 25 37 39 20 8 -11 23 -37 33 -59z m-481 -124 c102 -69 148 -128 156 -198 6 -47 -10 -133 -24 -133 -7 1 -31 37 -115 175 -26 44 -57 92 -67 107 -22 30 -60 96 -60 103 0 15 34 -2 110 -54z m-179 -291 c26 -14 24 -23 -12 -65 -23 -26 -39 -35 -63 -35 -52 0 -59 11 -31 52 37 55 67 68 106 48z m-143 -251 c-43 -89 -59 -111 -74 -98 -15 12 -19 96 -6 115 6 8 91 33 99 29 1 -1 -7 -21 -19 -46z m3779 -51 c13 -15 22 -43 26 -81 5 -53 2 -64 -36 -139 -48 -93 -79 -116 -99 -73 -14 30 14 206 43 273 20 47 36 52 66 20z m520 -345 c24 -26 42 -52 40 -58 -2 -5 -46 -11 -99 -13 -83 -2 -96 0 -102 14 -8 22 69 104 98 104 10 0 39 -21 63 -47z"></path><path id="p1AbAyeaHt" d="M4660 2533 c-6 -134 -6 -134 28 -164 18 -16 39 -29 48 -29 16 0 64 92 64 125 0 47 -55 106 -111 120 -26 6 -26 6 -29 -52z"></path><path id="p1H15qruXt" d="M3947 2368 c-20 -35 -37 -73 -37 -86 0 -13 17 -41 40 -65 l40 -42 41 43 c35 38 40 47 34 75 -8 36 -46 107 -68 125 -11 9 -21 0 -50 -50z"></path><path id="pnBMuPvBt" d="M3584 3899 c-156 -30 -280 -105 -409 -250 -99 -111 -145 -217 -145 -336 0 -130 78 -306 185 -418 50 -52 70 -66 117 -79 112 -32 184 -21 378 59 269 110 306 135 366 243 94 170 94 170 94 246 0 47 -7 85 -19 111 -44 98 -178 280 -269 369 -35 33 -52 41 -124 55 -79 17 -89 17 -174 0z m280 -500 c23 -18 56 -67 56 -83 0 -9 -92 -46 -115 -46 -22 0 -49 25 -80 73 -17 27 -17 28 5 52 31 33 95 34 134 4z m-519 -70 c25 -18 45 -35 45 -38 0 -15 -81 -91 -97 -91 -27 0 -69 41 -82 79 -15 46 -14 57 6 76 23 24 73 14 128 -26z"></path><path id="p1Fr5pP9kZ" d="M3363 2301 c-127 -70 -181 -136 -297 -366 -65 -128 -78 -161 -86 -226 -17 -138 0 -198 126 -455 52 -107 74 -163 74 -189 0 -23 15 -69 39 -120 80 -166 93 -303 42 -454 -16 -47 -34 -122 -41 -166 -6 -44 -14 -94 -17 -111 -3 -19 2 -46 11 -66 33 -70 115 -87 200 -42 26 14 66 32 88 40 52 18 168 120 174 153 13 62 48 83 209 121 171 41 311 108 402 193 69 65 89 97 121 192 11 33 32 86 46 117 l26 58 -38 24 c-20 14 -64 29 -97 35 -77 12 -134 33 -215 78 -36 19 -99 54 -140 76 -94 50 -115 69 -136 123 -10 27 -34 58 -64 83 -95 80 -191 243 -229 386 -11 44 -34 162 -50 261 -28 173 -58 272 -86 281 -6 1 -34 -10 -62 -26z m-87 -648 c12 -18 34 -72 49 -120 15 -48 49 -137 75 -198 68 -154 83 -202 75 -241 -6 -37 -17 -41 -53 -20 -51 28 -110 150 -217 451 -19 55 -35 103 -35 106 0 4 10 18 21 33 27 35 57 31 85 -11z"></path></g></g></svg>
