<svg xmlns="http://www.w3.org/2000/svg" width="1240" height="566" viewBox="0 0 12400 5660"><g id="l4OPVYN3aq8r2FlsNKq0k0F" fill="rgb(222,255,22)" style="transform: none;"><g><path id="p12delVShl" d="M7094 5560 c-108 -15 -168 -50 -204 -120 -26 -52 -33 -101 -20 -149 13 -51 85 -136 121 -144 34 -8 82 -79 110 -165 11 -37 32 -84 46 -105 24 -38 148 -181 214 -247 l33 -33 -69 -64 c-213 -196 -223 -203 -264 -203 -22 0 -42 3 -45 8 -2 4 32 47 76 96 110 122 127 169 92 256 -17 43 -26 46 -71 29 -15 -6 -68 -15 -118 -20 -49 -4 -119 -18 -155 -29 -73 -24 -289 -127 -396 -189 -39 -23 -80 -41 -92 -41 -25 0 -72 20 -72 30 0 4 32 27 70 50 39 23 73 47 77 53 3 6 -5 20 -18 32 -13 12 -35 33 -48 48 -23 25 -23 27 -7 51 17 27 17 22 -15 231 -5 33 -9 82 -9 108 0 60 -31 97 -83 97 -79 0 -167 52 -167 100 0 9 11 30 25 46 30 35 32 73 5 102 -28 30 -57 35 -111 19 l-46 -14 -58 38 c-48 33 -65 39 -108 39 -69 0 -127 -30 -155 -79 -28 -49 -29 -115 -2 -159 11 -18 20 -43 20 -55 0 -18 8 -25 43 -34 60 -17 130 -87 156 -159 l22 -57 -27 -41 c-26 -39 -35 -101 -17 -129 3 -6 9 -45 13 -88 7 -80 16 -100 96 -213 20 -29 34 -60 34 -78 0 -56 -20 -69 -465 -297 -168 -87 -222 -129 -206 -159 5 -9 44 -52 86 -94 l77 -77 38 24 c21 13 67 34 102 46 57 21 85 23 288 25 250 3 299 -4 404 -57 34 -17 91 -52 127 -79 37 -27 76 -53 87 -59 34 -18 126 -149 177 -250 26 -52 57 -110 70 -130 44 -66 58 -150 51 -298 -7 -137 1 -181 41 -225 23 -26 10 -64 -29 -77 -31 -11 -32 -10 -127 88 -89 91 -100 99 -151 110 -30 7 -77 9 -105 6 -27 -3 -72 -2 -100 2 -40 7 -50 12 -50 28 0 15 17 24 90 46 106 32 134 34 239 14 44 -8 81 -14 83 -12 11 12 -32 197 -61 260 -18 39 -46 102 -61 139 -25 63 -43 84 -100 113 -11 6 -30 31 -41 56 -25 52 -88 98 -228 169 l-89 45 -236 3 c-222 2 -238 1 -269 -18 -39 -24 -72 -75 -72 -111 0 -14 14 -52 31 -84 l30 -57 -10 -102 c-6 -55 -19 -131 -31 -168 -24 -79 -86 -176 -143 -222 -58 -47 -203 -135 -257 -157 -25 -9 -70 -27 -100 -39 -70 -28 -196 -60 -236 -60 -18 0 -42 -8 -55 -19 -22 -17 -22 -21 -10 -62 6 -24 35 -100 63 -168 33 -82 55 -156 65 -215 10 -63 30 -128 65 -211 46 -109 52 -129 58 -221 8 -127 7 -126 191 -347 88 -107 163 -174 272 -245 89 -58 152 -84 287 -118 137 -35 135 -32 143 -240 6 -181 16 -253 48 -351 29 -89 101 -149 149 -123 19 10 20 20 20 160 0 83 2 150 5 150 2 0 21 -11 41 -25 44 -30 56 -31 76 -7 16 16 58 111 73 162 4 14 16 37 27 53 17 23 26 27 68 27 74 0 98 14 183 103 l78 82 22 -55 c12 -31 41 -90 65 -132 23 -41 42 -78 42 -82 0 -27 161 -212 334 -381 67 -66 150 -151 185 -188 78 -84 131 -114 171 -97 15 6 32 23 39 36 15 34 14 114 -3 155 -7 19 -19 80 -26 136 -12 97 -12 107 9 178 12 41 46 125 75 187 29 62 56 121 59 131 7 20 54 41 77 33 86 -27 186 -68 233 -94 31 -18 83 -46 114 -64 78 -43 129 -56 358 -89 198 -29 344 -26 639 11 88 11 226 60 321 115 33 19 103 58 155 86 104 57 208 141 247 201 22 33 31 38 62 38 29 0 44 -8 71 -35 l33 -34 -62 -70 c-34 -39 -73 -96 -87 -128 -14 -32 -39 -89 -56 -126 -39 -88 -37 -165 6 -221 25 -33 114 -102 172 -134 38 -21 82 0 150 71 137 142 182 233 209 419 6 36 27 68 46 68 22 0 149 -207 149 -243 0 -8 -15 -29 -32 -47 -27 -25 -39 -31 -66 -28 -27 3 -37 -1 -51 -21 -21 -29 -101 -198 -101 -212 0 -23 51 -96 76 -108 38 -19 119 -27 128 -12 4 6 20 11 35 11 32 0 107 45 174 106 56 50 103 68 163 61 24 -2 44 -3 44 -2 0 2 -11 26 -25 53 -28 56 -42 70 -82 81 -26 7 -30 15 -54 112 -32 123 -87 242 -140 303 -30 34 -61 53 -136 86 -215 93 -254 122 -305 227 -36 74 -32 93 35 194 40 60 71 138 98 254 7 28 29 110 50 183 54 187 63 268 63 572 1 263 1 265 -25 330 -24 59 -54 124 -96 205 -8 17 -35 71 -60 120 -24 50 -64 129 -89 178 -36 68 -44 94 -39 116 6 29 45 69 198 204 92 82 110 113 110 188 -1 61 -23 121 -87 234 -108 190 -126 243 -126 371 0 92 15 124 69 149 66 29 58 52 -55 159 -53 50 -105 97 -116 104 -18 13 -18 15 12 48 16 19 30 45 30 58 0 24 -41 87 -80 121 -12 11 -30 36 -40 55 -15 29 -16 38 -5 53 7 9 10 29 7 45 -10 56 -64 92 -140 92 -45 0 -51 3 -81 40 -41 51 -91 67 -158 51 -83 -21 -121 -53 -159 -138 -34 -74 -35 -79 -25 -141 10 -67 37 -127 77 -175 13 -15 42 -63 64 -105 22 -42 72 -114 110 -159 l69 -83 -29 -71 c-17 -40 -30 -76 -30 -81 0 -11 -78 -212 -113 -291 -24 -54 -117 -149 -168 -169 -19 -8 -60 -20 -91 -27 -69 -15 -163 -75 -196 -125 -34 -50 -49 -123 -57 -269 -6 -99 -10 -130 -22 -134 -23 -9 -31 6 -69 133 -30 100 -35 130 -31 189 8 134 69 219 183 255 36 11 83 20 103 20 60 0 109 19 146 55 50 51 60 136 17 147 -9 3 -89 54 -177 114 -284 194 -391 249 -557 286 -31 7 -57 18 -58 23 -2 16 81 34 125 28 22 -3 61 -14 86 -24 26 -10 73 -21 106 -24 l60 -7 13 32 13 33 -87 84 c-116 112 -126 130 -126 221 0 114 -38 162 -129 162 -52 0 -100 -41 -130 -110 -12 -27 -26 -50 -31 -50 -9 0 -60 152 -60 177 0 6 -13 25 -29 42 -39 42 -82 42 -122 1 -19 -19 -28 -36 -25 -47 3 -10 8 -36 12 -58 7 -40 38 -87 159 -235 63 -78 85 -117 85 -151 0 -17 -5 -19 -32 -15 -18 3 -119 8 -224 11 -241 8 -263 0 -264 -97 0 -15 -9 -42 -20 -60 -11 -18 -20 -42 -20 -53 0 -12 34 -84 75 -160 134 -251 192 -429 181 -556 -7 -81 -51 -259 -69 -276 -7 -7 -26 -15 -43 -19 -30 -6 -32 -4 -41 32 -7 31 -4 59 14 128 25 95 28 151 13 262 -12 92 -32 145 -104 277 -32 60 -73 149 -91 200 -18 51 -39 106 -46 123 -11 28 -10 41 9 99 20 63 20 69 5 99 -30 58 -97 151 -155 212 -90 97 -95 127 -33 205 65 82 42 161 -57 194 -77 26 -127 23 -173 -8 l-38 -26 -39 22 c-21 12 -41 32 -44 45 -4 12 -21 34 -39 47 -34 27 -54 28 -161 15z m-769 -1360 c130 -30 325 -99 405 -142 108 -59 173 -105 352 -253 225 -185 343 -353 432 -616 l35 -106 -3 -163 c-3 -155 -2 -163 19 -188 20 -23 31 -26 126 -33 125 -8 172 -19 298 -66 140 -52 209 -89 261 -142 67 -67 84 -96 115 -191 23 -70 28 -103 28 -185 1 -115 -16 -179 -68 -254 -19 -27 -48 -84 -65 -128 -18 -43 -44 -107 -58 -142 -30 -76 -88 -152 -142 -186 -21 -13 -50 -40 -63 -60 -61 -89 -185 -236 -214 -251 -26 -15 -36 -16 -57 -6 -14 6 -26 18 -26 27 0 8 37 52 82 97 225 228 381 471 457 713 52 165 51 283 -1 403 -56 127 -173 203 -373 240 -33 6 -98 19 -145 28 -111 21 -166 10 -298 -58 -87 -44 -102 -49 -144 -44 -26 3 -60 12 -77 20 -30 16 -77 73 -68 82 3 3 55 17 116 30 62 13 125 30 140 39 27 14 30 20 36 91 4 42 5 147 2 233 -9 266 -33 318 -278 591 -42 47 -90 104 -107 128 -17 24 -63 67 -102 95 -335 243 -379 259 -790 298 -171 16 -218 23 -227 36 -7 9 -13 20 -13 24 0 9 134 57 175 63 48 6 154 -4 240 -24z m-250 -1551 c66 -17 118 -66 134 -128 27 -108 8 -226 -45 -273 -38 -32 -108 -62 -161 -66 -46 -4 -59 -1 -92 23 -42 28 -60 59 -84 142 -43 146 -28 270 37 299 38 16 151 18 211 3z m-668 -173 c55 -28 67 -57 71 -173 5 -124 -10 -175 -65 -224 -133 -116 -280 -62 -339 124 -15 49 -16 64 -5 109 30 133 106 192 236 185 39 -2 85 -11 102 -21z m856 -597 c15 -23 2 -62 -37 -108 -19 -23 -37 -54 -41 -70 -7 -33 -39 -71 -61 -71 -48 0 -155 85 -183 145 -27 58 -27 61 8 73 39 14 58 -1 69 -52 17 -83 60 -72 137 34 40 57 55 69 74 67 13 -1 28 -9 34 -18z m-1065 -45 c12 -8 22 -23 22 -32 2 -64 79 -73 138 -16 38 37 90 69 98 61 3 -2 7 -20 10 -39 6 -34 4 -36 -96 -113 l-103 -78 -26 34 c-14 18 -47 58 -73 88 -52 58 -53 62 -38 92 13 23 38 24 68 3z m1847 -144 c15 -29 25 -67 25 -92 1 -97 30 -155 153 -301 31 -38 57 -73 57 -78 0 -15 -77 -32 -112 -25 -49 9 -68 34 -140 180 -62 127 -63 132 -63 210 0 68 4 87 23 119 13 20 26 37 28 37 2 0 15 -22 29 -50z m-466 -149 c125 -84 175 -168 157 -264 -3 -18 -12 -42 -20 -52 -13 -18 -14 -17 -31 14 -9 18 -42 73 -73 121 -31 49 -72 113 -90 142 -18 29 -40 63 -49 76 -28 40 11 27 106 -37z m-185 -291 c34 -13 33 -25 -9 -67 -28 -28 -41 -34 -67 -31 -45 4 -46 28 -5 72 37 39 43 41 81 26z m-146 -266 c-36 -69 -57 -96 -69 -88 -11 6 -12 105 -1 120 6 9 91 34 99 29 2 -1 -11 -28 -29 -61z m3783 -33 c18 -14 24 -29 24 -62 0 -24 3 -49 7 -55 4 -7 -10 -51 -32 -98 -30 -64 -47 -89 -66 -96 -33 -13 -30 -14 -43 18 -19 47 47 312 78 312 5 0 19 -8 32 -19z m524 -348 c25 -26 44 -52 42 -57 -2 -7 -46 -12 -105 -14 l-102 -3 0 25 c0 27 73 95 103 96 9 0 38 -21 62 -47z"></path><path id="puZviKkYO" d="M6022 2562 c1 -20 -1 -59 -5 -87 -8 -58 3 -87 46 -119 l29 -21 28 34 c69 82 40 170 -73 219 -27 12 -27 12 -25 -26z"></path><path id="pl6rqtuig" d="M5306 2370 c-50 -78 -49 -101 3 -154 l42 -41 41 43 c33 36 39 49 35 72 -5 23 -72 140 -80 140 -1 0 -19 -27 -41 -60z"></path><path id="pakjOmNgO" d="M4355 5546 c-90 -28 -125 -75 -128 -172 -2 -52 0 -57 32 -83 25 -20 32 -33 28 -46 -13 -31 13 -95 53 -133 22 -22 49 -64 63 -98 22 -54 55 -110 124 -208 11 -17 55 -65 97 -106 42 -41 76 -78 76 -82 0 -5 -7 -8 -16 -8 -29 0 -129 -68 -177 -119 -26 -27 -56 -70 -68 -94 -19 -38 -27 -46 -56 -49 -63 -7 -59 12 23 129 42 59 85 118 96 130 26 28 18 79 -18 123 -30 35 -64 39 -111 11 -20 -13 -66 -24 -128 -30 -150 -17 -308 -80 -405 -160 -60 -50 -72 -56 -170 -81 -69 -18 -88 -19 -107 -9 -13 7 -23 15 -23 19 0 4 31 28 69 53 l69 46 -13 58 c-8 32 -27 107 -44 167 -20 69 -31 133 -31 172 0 60 2 65 40 103 22 22 40 45 40 52 0 21 -43 77 -68 88 -18 9 -37 6 -83 -9 -57 -19 -63 -20 -86 -5 -33 22 -47 57 -38 92 17 60 -7 104 -72 129 -35 14 -52 15 -94 6 -49 -9 -55 -8 -97 19 -29 18 -59 29 -81 29 -96 0 -163 -107 -112 -178 10 -15 28 -47 41 -71 12 -24 62 -84 111 -132 49 -48 89 -95 89 -104 0 -10 -11 -30 -25 -47 -40 -47 -39 -51 54 -461 26 -112 29 -141 20 -160 -17 -31 -28 -37 -80 -37 -72 0 -140 -26 -236 -88 -48 -31 -118 -73 -156 -91 -38 -19 -85 -54 -108 -79 -40 -43 -41 -46 -35 -95 6 -56 29 -95 67 -114 19 -9 39 -8 104 9 146 38 562 40 705 3 102 -26 168 -66 240 -142 80 -86 178 -205 205 -248 101 -166 115 -193 126 -257 12 -69 2 -181 -23 -254 -10 -29 -8 -35 25 -76 20 -24 41 -56 46 -71 10 -25 8 -29 -22 -47 -38 -24 -36 -24 -79 -5 -27 11 -42 27 -62 68 -16 33 -37 59 -53 67 -18 9 -79 16 -163 20 -125 5 -135 6 -138 25 -2 16 10 26 56 48 53 24 69 27 169 27 149 0 163 13 124 115 -11 28 -46 104 -78 170 -125 255 -169 314 -284 374 -35 19 -95 53 -134 77 -38 23 -101 53 -139 65 l-69 23 -151 -23 c-258 -38 -257 -37 -271 -112 -5 -27 -1 -46 16 -79 22 -42 23 -53 20 -229 l-2 -184 -43 -56 c-75 -97 -134 -157 -229 -235 -112 -91 -183 -125 -285 -138 -183 -22 -209 -26 -244 -41 l-38 -16 14 -39 c8 -22 32 -66 54 -98 66 -98 73 -119 79 -223 3 -53 14 -125 25 -161 11 -36 26 -105 34 -155 26 -156 64 -256 163 -427 57 -99 95 -138 220 -225 194 -135 296 -195 401 -233 81 -29 127 -56 143 -83 8 -15 14 -90 17 -222 5 -207 5 -206 55 -297 21 -36 82 -88 105 -88 10 0 28 12 39 26 19 24 21 40 21 155 0 71 2 129 5 129 3 0 23 -9 45 -20 22 -11 46 -20 54 -20 23 0 62 54 86 117 12 32 31 73 42 92 23 37 86 70 134 71 26 0 68 21 161 80 12 8 23 12 25 10 2 -3 30 -59 63 -125 76 -153 177 -288 330 -444 l121 -123 28 40 c40 58 56 123 55 221 0 102 -20 182 -77 306 -23 50 -69 171 -102 270 -34 99 -78 215 -97 257 -99 219 -29 419 260 741 40 44 86 94 104 112 71 73 76 115 30 251 -29 86 -85 170 -195 291 -92 103 -100 117 -136 258 -37 140 -35 226 5 330 17 45 33 108 36 145 l5 65 -54 50 c-30 28 -94 84 -143 125 -49 41 -108 92 -130 113 -23 20 -52 37 -63 37 -11 0 -100 25 -198 55 -97 30 -196 58 -218 61 -46 6 -283 53 -306 61 -34 10 24 31 120 43 124 16 166 9 377 -63 264 -91 450 -193 633 -347 l85 -72 15 23 c61 94 117 126 327 189 169 51 223 54 313 17 64 -27 65 -27 90 -9 33 25 86 115 101 172 11 44 10 47 -44 161 -127 264 -121 247 -121 334 -1 44 3 105 8 136 8 56 8 56 -29 90 -82 76 -96 93 -130 164 -19 40 -35 78 -35 84 0 6 -15 17 -34 25 -65 27 -69 68 -16 147 35 52 38 89 10 135 -30 48 -91 69 -178 60 -37 -3 -76 -9 -87 -12 -14 -3 -35 6 -65 29 -83 63 -153 79 -235 53z m-973 -2909 c52 -30 72 -56 88 -118 20 -72 17 -149 -7 -195 -44 -84 -143 -141 -227 -132 -86 10 -132 69 -161 204 -29 138 -8 246 52 260 15 3 33 8 38 10 6 2 46 2 91 1 66 -3 89 -8 126 -30z m-744 -128 c33 -6 59 -20 78 -40 29 -30 29 -30 29 -163 0 -99 -4 -137 -14 -150 -14 -17 -142 -81 -222 -111 -44 -16 -48 -16 -73 0 -14 9 -38 38 -54 63 -70 116 -80 202 -34 293 29 58 65 85 141 105 58 16 88 17 149 3z m886 -620 c26 -20 26 -22 10 -40 -28 -31 -53 -33 -80 -8 l-24 23 22 23 c27 28 38 29 72 2z m-1094 -36 c17 -10 35 -34 45 -60 9 -24 23 -43 31 -43 24 0 67 26 99 60 17 17 37 36 46 40 17 10 89 -5 89 -18 0 -18 -42 -73 -67 -88 -15 -10 -39 -28 -53 -40 -14 -13 -41 -30 -61 -38 -31 -13 -39 -13 -64 0 -15 8 -34 22 -42 32 -26 34 -75 144 -69 158 7 18 12 18 46 -3z m970 -68 c25 -23 25 -37 0 -60 -50 -45 -144 -6 -185 76 -14 26 -25 52 -25 57 0 13 186 -51 210 -73z m446 -227 c99 -95 127 -139 148 -226 14 -61 14 -63 -8 -89 -27 -31 -44 -27 -79 19 -28 37 -187 349 -187 367 0 31 48 4 126 -71z m-182 -294 c25 -9 19 -29 -19 -70 -31 -33 -39 -36 -71 -31 -20 3 -39 8 -41 11 -6 6 34 66 55 84 17 13 51 16 76 6z m-364 -264 c0 -73 -3 -90 -15 -90 -12 0 -15 17 -15 90 0 73 3 90 15 90 12 0 15 -17 15 -90z"></path><path id="p1DdLZwz0w" d="M3272 2514 l-3 -95 36 -36 36 -36 25 24 c56 52 68 109 32 154 -24 31 -96 85 -112 85 -7 0 -12 -35 -14 -96z"></path><path id="payPaHASR" d="M2582 2408 c-12 -24 -32 -60 -44 -80 -18 -30 -20 -40 -11 -49 10 -10 20 -6 48 21 19 18 38 30 42 27 4 -4 -1 -31 -10 -59 -20 -63 -10 -78 32 -47 60 44 69 137 20 194 -17 19 -36 35 -43 35 -7 0 -22 -19 -34 -42z"></path><path id="pcZa6OfN3" d="M5252 4854 c-19 -13 -22 -24 -22 -87 0 -40 5 -121 10 -181 9 -96 15 -117 43 -164 55 -92 61 -104 92 -199 l30 -92 82 52 c284 180 297 190 313 235 14 40 13 46 -14 122 -16 44 -34 115 -42 157 -15 90 -34 120 -94 151 -41 20 -58 22 -210 22 -134 0 -170 -3 -188 -16z"></path><path id="p16pRDnW8T" d="M2225 3920 c-156 -9 -186 -23 -335 -147 -77 -64 -136 -134 -182 -213 -30 -53 -68 -181 -68 -231 0 -70 42 -158 150 -315 107 -156 283 -237 410 -189 25 9 90 30 145 47 121 36 256 114 290 168 12 19 43 62 69 94 76 98 91 138 90 236 0 68 -7 103 -32 175 -69 199 -61 185 -128 217 -41 19 -75 45 -106 81 -36 41 -58 57 -98 70 -29 9 -62 16 -74 15 -11 -1 -70 -4 -131 -8z m-290 -500 c23 -11 48 -32 56 -46 13 -25 12 -28 -30 -65 -50 -44 -79 -49 -108 -16 -18 19 -43 83 -43 110 0 8 57 36 74 37 5 0 28 -9 51 -20z m566 -31 l27 -33 -20 -25 c-10 -14 -34 -36 -53 -49 -42 -30 -64 -20 -94 41 -39 82 -22 110 63 104 41 -4 54 -10 77 -38z"></path><path id="p127l5J5YF" d="M4940 3904 c-141 -30 -238 -83 -352 -192 -153 -146 -219 -288 -204 -437 19 -187 167 -417 296 -460 118 -40 201 -25 461 85 236 100 239 103 334 284 52 100 55 110 55 179 0 63 -5 83 -36 147 -19 41 -56 104 -82 138 -68 93 -191 230 -210 236 -34 11 -164 36 -180 35 -9 0 -46 -7 -82 -15z m278 -500 c22 -15 52 -63 52 -83 0 -15 -74 -51 -103 -51 -24 0 -51 24 -82 73 -17 27 -17 28 5 52 28 30 92 34 128 9z m-553 -54 c22 -10 51 -28 65 -39 l25 -20 -39 -40 c-22 -23 -48 -43 -58 -46 -39 -13 -98 54 -98 113 0 54 36 65 105 32z"></path><path id="pPo9d4k2R" d="M1990 2350 c-25 -6 -55 -30 -107 -87 -190 -204 -249 -345 -247 -593 1 -209 41 -353 160 -579 122 -231 137 -368 63 -558 -12 -30 -22 -81 -24 -125 -1 -40 -8 -102 -14 -138 -14 -80 -7 -113 27 -141 43 -33 94 -20 225 57 119 70 127 77 127 110 0 54 139 144 223 144 127 1 323 87 477 210 99 79 162 189 194 337 9 41 -2 47 -150 83 -240 60 -436 193 -598 405 -64 84 -82 119 -141 270 -75 195 -99 294 -101 425 -2 63 -3 123 -3 133 -1 23 -37 57 -58 56 -10 -1 -34 -5 -53 -9z m-56 -672 c11 -15 16 -45 16 -89 0 -80 11 -113 91 -272 39 -79 61 -135 61 -157 1 -35 -25 -100 -40 -100 -16 0 -117 166 -159 262 -113 261 -128 313 -97 356 12 18 25 22 64 22 39 0 52 -4 64 -22z"></path><path id="p171UHB9If" d="M4715 2306 c-117 -59 -189 -150 -304 -386 -76 -156 -97 -245 -81 -340 13 -73 93 -270 153 -375 30 -53 41 -86 47 -137 5 -48 16 -81 38 -117 85 -138 102 -359 37 -491 -7 -14 -16 -47 -19 -74 -4 -27 -9 -53 -12 -57 -2 -4 -9 -31 -14 -59 -13 -69 4 -110 56 -135 65 -32 111 -23 251 44 133 65 165 86 248 167 49 48 58 52 160 78 230 57 421 182 464 302 8 21 34 86 58 143 24 57 42 109 39 116 -6 18 -87 55 -119 55 -51 0 -151 41 -308 126 -154 83 -156 85 -182 138 -15 30 -41 66 -58 81 -64 53 -143 162 -190 260 -55 115 -74 182 -94 332 -8 60 -19 140 -26 179 -12 76 -54 167 -79 172 -8 1 -38 -9 -65 -22z m-92 -634 c9 -9 36 -73 60 -142 25 -69 70 -186 102 -260 43 -104 55 -143 51 -169 -7 -44 -10 -46 -45 -31 -52 21 -101 112 -196 365 -70 183 -73 203 -45 233 25 27 51 28 73 4z"></path></g></g></svg>
