<svg xmlns="http://www.w3.org/2000/svg" width="1240" height="566" viewBox="0 0 12400 5660"><g id="l5AyzLuLIMe62QW2enyZaNo" fill="rgb(230,255,23)" style="transform: none;"><g style="transform: none;"><path id="pk95y0O24" d="M5882 5544 c-62 -31 -88 -64 -103 -133 -13 -62 -1 -101 37 -121 20 -11 24 -21 24 -57 0 -54 11 -76 61 -128 21 -22 45 -60 54 -85 34 -97 136 -242 238 -337 64 -59 71 -73 38 -73 -23 0 -123 -69 -166 -114 -20 -22 -50 -63 -66 -91 -23 -41 -36 -54 -58 -57 -34 -5 -51 0 -51 15 0 12 79 129 147 218 l43 57 -16 46 c-26 75 -72 94 -136 57 -20 -12 -71 -23 -128 -30 -158 -18 -305 -77 -416 -167 -48 -40 -72 -51 -152 -71 -87 -22 -96 -23 -118 -8 -13 8 -24 17 -24 19 0 2 32 23 70 46 l71 43 -7 46 c-4 25 -20 88 -35 140 -53 171 -57 268 -14 350 8 17 15 32 15 34 0 3 -26 7 -57 11 -68 8 -157 46 -172 75 -6 11 -11 51 -11 90 0 65 -2 72 -32 101 -31 31 -34 32 -97 27 -57 -4 -69 -2 -95 18 -54 40 -101 50 -151 31 -54 -21 -71 -40 -86 -98 -12 -43 -11 -50 17 -113 22 -53 51 -90 127 -170 106 -112 113 -128 72 -177 -14 -16 -25 -42 -25 -56 0 -15 18 -106 41 -202 72 -314 75 -334 56 -364 -15 -23 -24 -26 -72 -26 -76 0 -155 -30 -250 -94 -44 -29 -105 -66 -137 -81 -31 -15 -78 -47 -105 -70 -46 -41 -48 -44 -47 -93 2 -59 34 -119 70 -132 17 -7 52 -2 121 15 90 23 117 25 323 26 363 0 471 -29 599 -164 211 -222 321 -398 344 -550 5 -33 -18 -179 -35 -220 -10 -25 -8 -31 19 -60 74 -79 80 -111 27 -133 -32 -14 -39 -13 -72 3 -24 12 -44 34 -62 68 -40 75 -68 86 -219 84 -117 -1 -125 0 -132 19 -7 18 1 25 51 51 56 29 65 31 174 31 112 0 116 1 132 25 15 23 14 28 -10 89 -37 92 -144 309 -189 383 -45 74 -103 127 -183 168 -33 16 -85 47 -117 68 -63 42 -180 87 -225 87 -46 0 -354 -50 -374 -61 -39 -21 -51 -107 -20 -149 14 -21 17 -54 20 -216 l3 -190 -47 -60 c-68 -85 -158 -177 -239 -243 -128 -104 -177 -124 -345 -140 -124 -12 -210 -35 -210 -57 0 -25 25 -76 73 -146 49 -73 81 -177 71 -239 -3 -21 4 -66 20 -121 14 -48 28 -106 31 -130 19 -133 61 -272 110 -356 19 -34 51 -90 71 -124 52 -93 92 -128 274 -250 158 -105 279 -171 365 -199 22 -7 55 -24 74 -37 56 -41 63 -72 59 -271 l-3 -176 30 -58 c60 -119 120 -160 165 -112 24 25 25 34 28 156 l4 129 38 -20 c22 -11 48 -20 59 -20 26 0 54 41 91 131 43 107 94 149 179 149 13 0 58 21 98 46 41 25 75 45 77 43 1 -2 33 -62 70 -134 85 -162 178 -287 329 -439 l117 -118 19 23 c51 66 56 87 56 239 0 135 -2 149 -26 205 -57 129 -92 217 -153 395 -36 102 -76 211 -91 242 -99 216 -23 415 295 768 117 129 143 170 133 211 -38 165 -93 267 -209 389 -114 120 -115 123 -154 282 -39 161 -38 194 10 338 22 65 40 133 40 150 0 44 -39 84 -314 319 -33 28 -69 51 -80 51 -12 0 -84 20 -161 45 -156 50 -209 63 -405 101 -74 14 -144 29 -155 34 -19 7 -18 9 7 18 43 17 197 35 249 29 77 -9 374 -114 509 -179 146 -71 233 -128 356 -232 49 -42 91 -76 94 -75 3 0 22 24 43 54 46 67 103 96 297 154 194 57 201 58 300 22 l84 -31 34 32 c40 40 92 144 92 187 0 17 -24 81 -54 143 -125 262 -134 292 -117 384 6 32 11 77 11 100 0 39 -4 46 -60 94 -48 42 -67 67 -101 140 -32 67 -51 94 -78 112 -32 21 -36 28 -35 65 0 29 8 50 26 72 15 17 32 47 38 66 10 31 9 41 -12 82 -32 64 -67 88 -128 87 -27 0 -67 -9 -90 -19 l-40 -18 -28 26 c-74 70 -223 90 -320 41z m-986 -2889 c68 -20 109 -65 128 -140 22 -82 20 -131 -8 -191 -26 -56 -67 -92 -134 -117 -80 -31 -151 -14 -199 49 -57 76 -84 295 -43 361 12 20 32 36 52 42 51 14 149 13 204 -4z m-659 -162 c52 -25 65 -68 64 -207 0 -85 -4 -113 -17 -127 -20 -22 -131 -81 -208 -109 -58 -22 -58 -22 -85 -3 -36 27 -74 87 -100 156 -26 72 -26 102 -1 171 30 79 75 114 175 140 38 9 134 -2 172 -21z m846 -607 l29 -23 -30 -22 c-39 -28 -56 -27 -77 5 -16 24 -16 27 1 45 22 25 43 24 77 -5z m-1084 -45 c17 -16 31 -38 31 -49 0 -55 60 -52 119 7 22 22 48 44 58 49 22 11 83 -4 83 -21 0 -17 -38 -77 -49 -77 -5 0 -36 -20 -69 -45 -95 -72 -144 -58 -201 57 -50 100 -36 139 28 79z m857 -11 c51 -17 100 -40 109 -50 17 -19 17 -21 -1 -41 -31 -34 -51 -41 -92 -30 -43 12 -90 58 -115 114 -21 46 -19 46 99 7z m522 -251 c121 -111 149 -150 172 -246 13 -59 8 -88 -21 -103 -42 -23 -62 5 -192 265 -36 71 -63 133 -61 137 12 18 39 4 102 -53z m-149 -318 c13 -8 13 -12 1 -28 -53 -69 -80 -84 -124 -67 -23 9 -20 21 15 65 24 31 37 39 62 39 18 0 38 -4 46 -9z m-371 -258 c-2 -70 -6 -88 -18 -88 -12 0 -16 16 -18 74 -3 84 1 101 23 101 13 0 15 -13 13 -87z"></path><path id="pMrQgm95E" d="M4831 2594 c2 -16 0 -57 -5 -90 -9 -71 5 -109 49 -138 26 -17 28 -17 50 4 83 78 59 160 -65 234 l-32 18 3 -28z"></path><path id="p1Geevf4e" d="M4117 2373 c-39 -68 -43 -80 -31 -93 13 -13 18 -11 42 18 45 53 49 45 26 -65 -8 -40 -1 -41 42 -8 38 29 59 89 49 136 -8 34 -51 89 -70 89 -7 0 -33 -35 -58 -77z"></path><path id="pUY7Wzwxf" d="M8645 5546 c-62 -28 -102 -74 -110 -124 -3 -20 -10 -54 -15 -75 -5 -24 -4 -50 2 -69 6 -16 8 -52 5 -79 -5 -44 -4 -49 11 -45 26 9 85 -78 120 -179 35 -98 41 -108 181 -262 55 -62 101 -114 101 -117 0 -6 -115 -116 -209 -200 -68 -60 -79 -66 -118 -66 -24 0 -43 5 -43 11 0 5 31 42 68 82 91 97 114 137 114 196 0 47 -24 111 -42 111 -5 0 -21 -5 -37 -11 -15 -6 -62 -12 -103 -15 -46 -2 -114 -16 -174 -35 -95 -31 -363 -159 -413 -199 -34 -26 -87 -35 -123 -20 -17 7 -30 15 -30 19 0 3 37 28 81 55 l81 49 -46 46 c-45 45 -56 73 -36 86 14 9 12 64 -5 170 -8 50 -15 114 -15 143 0 85 -28 121 -95 122 -69 1 -155 53 -155 94 0 13 9 31 20 41 39 35 15 122 -45 161 -33 21 -116 15 -174 -13 l-41 -21 -44 43 c-24 23 -55 44 -67 47 -64 12 -130 -37 -143 -106 -5 -27 2 -60 26 -133 33 -97 34 -98 75 -111 60 -19 122 -77 149 -139 30 -67 30 -76 -1 -121 -29 -43 -30 -58 -10 -147 9 -36 13 -70 10 -76 -11 -18 25 -103 66 -158 86 -113 84 -153 -9 -212 -31 -20 -70 -43 -87 -51 -26 -13 -104 -53 -414 -215 -77 -40 -106 -70 -97 -100 3 -10 41 -53 84 -96 l79 -78 38 25 c84 57 149 69 390 72 121 1 243 -2 270 -7 117 -21 330 -156 416 -263 27 -34 72 -106 100 -161 29 -55 65 -122 81 -149 43 -73 59 -173 52 -320 -6 -117 -5 -123 20 -169 40 -75 31 -107 -30 -107 -28 0 -41 10 -95 76 -35 41 -83 87 -107 101 -41 24 -55 27 -169 29 -123 2 -151 9 -141 36 6 16 172 68 216 68 16 0 67 -7 112 -16 45 -8 83 -14 85 -12 8 9 -38 205 -58 246 -13 26 -36 79 -51 119 -33 86 -56 117 -105 143 -28 14 -42 30 -55 64 -14 36 -28 52 -79 84 -95 60 -191 110 -239 123 -68 19 -460 14 -499 -6 -68 -36 -89 -128 -44 -200 29 -47 32 -125 11 -245 -30 -166 -118 -285 -286 -387 -143 -86 -332 -157 -452 -170 -38 -4 -68 -13 -79 -24 -16 -16 -16 -22 -4 -66 7 -26 31 -92 54 -145 42 -99 61 -164 81 -277 6 -35 32 -109 57 -165 42 -91 47 -110 50 -191 5 -109 20 -150 86 -240 230 -309 426 -452 702 -510 106 -22 115 -40 115 -244 0 -127 15 -241 46 -341 27 -89 113 -155 152 -116 15 14 17 37 14 161 -2 80 0 145 5 145 4 0 25 -12 46 -26 21 -14 46 -24 55 -22 18 3 61 83 83 153 7 22 23 55 36 73 22 29 29 32 74 32 68 0 102 20 182 106 l68 74 75 -149 c48 -95 98 -177 139 -227 87 -108 404 -417 475 -463 14 -9 39 -28 55 -43 39 -36 83 -37 115 -4 17 19 21 31 16 53 -17 66 -45 252 -45 300 -1 83 15 139 88 293 46 97 77 150 93 159 21 12 34 10 128 -24 58 -20 146 -61 195 -90 50 -30 102 -58 116 -64 45 -16 151 -40 234 -51 44 -6 118 -17 165 -23 47 -7 123 -11 170 -10 154 4 447 35 485 52 11 5 36 15 55 22 75 27 142 61 285 144 158 92 215 136 271 209 46 60 81 63 136 10 l37 -37 -64 -70 c-62 -68 -106 -150 -162 -302 -32 -85 9 -179 105 -243 31 -21 67 -45 81 -55 17 -11 36 -16 54 -13 64 12 209 171 262 287 29 65 55 161 55 206 0 42 33 78 58 64 19 -10 102 -144 127 -204 l16 -38 -35 -35 c-30 -30 -41 -35 -73 -32 l-37 3 -59 -117 -58 -116 19 -39 c11 -21 32 -49 47 -63 23 -22 35 -25 98 -25 85 1 141 25 228 100 78 67 122 87 180 83 41 -2 49 0 49 15 0 9 -4 17 -8 17 -5 0 -14 11 -20 24 -18 41 -54 76 -77 76 -20 0 -25 12 -48 103 -59 236 -140 344 -307 411 -169 67 -228 112 -279 213 -34 69 -27 105 44 203 29 39 95 217 95 253 0 7 20 83 44 169 25 86 49 199 55 252 14 121 14 546 0 606 -8 36 -66 170 -108 250 -4 8 -32 62 -61 120 -29 58 -72 144 -96 191 -54 108 -51 123 44 206 113 98 203 187 218 215 36 70 -4 209 -107 368 -61 94 -103 243 -96 337 6 75 23 104 74 129 21 11 40 27 41 37 3 12 -28 49 -90 111 -51 50 -104 99 -117 108 l-23 16 24 34 c14 18 28 41 31 51 9 24 -13 64 -58 107 -43 40 -74 102 -75 144 0 51 -38 115 -81 136 -45 24 -66 25 -109 6 -31 -12 -35 -11 -84 21 -45 31 -57 34 -98 31 -64 -7 -121 -46 -158 -111 -27 -47 -30 -58 -24 -107 10 -87 29 -135 76 -202 25 -35 57 -88 72 -118 15 -30 44 -75 64 -99 21 -24 54 -66 75 -93 l39 -49 -31 -77 c-17 -42 -31 -81 -31 -87 0 -10 -65 -178 -104 -269 -27 -63 -111 -150 -168 -174 -23 -10 -69 -24 -100 -31 -101 -22 -205 -113 -227 -199 -5 -20 -15 -100 -21 -177 -11 -140 -17 -162 -42 -153 -21 9 -81 234 -81 303 -1 172 96 273 278 293 91 10 131 27 169 72 19 24 26 43 26 76 0 37 -4 45 -28 58 -15 8 -99 63 -188 123 -220 150 -340 216 -458 253 -54 16 -110 30 -123 30 -39 0 -22 23 28 37 48 14 90 10 160 -18 26 -10 74 -21 107 -25 60 -6 60 -6 76 25 l16 30 -90 87 c-109 106 -132 147 -123 225 9 94 -41 159 -124 159 -60 0 -92 -25 -132 -100 -18 -34 -37 -58 -41 -53 -10 10 -45 121 -60 191 -16 71 -43 89 -104 72 -58 -16 -87 -48 -93 -102 -5 -42 -2 -48 50 -109 131 -151 189 -227 213 -277 15 -30 22 -57 18 -61 -5 -4 -107 -3 -227 2 -271 11 -286 7 -287 -85 0 -14 -12 -49 -26 -76 l-26 -51 80 -153 c144 -276 188 -411 179 -558 -5 -88 -45 -262 -64 -281 -5 -5 -24 -10 -43 -11 -32 -3 -35 -1 -44 33 -7 28 -4 52 13 107 26 87 29 253 5 344 -8 33 -50 128 -92 211 -73 142 -127 275 -139 340 -3 16 2 56 12 88 15 49 16 64 6 87 -25 54 -125 194 -161 225 -21 18 -48 51 -59 74 -21 40 -22 43 -5 75 9 18 26 44 38 58 12 14 30 42 40 62 16 30 18 40 7 65 -28 68 -103 78 -203 27 -28 -14 -54 -22 -57 -17 -4 4 -26 31 -49 60 -24 28 -62 61 -85 72 -60 29 -146 28 -212 -3z m-795 -1337 c87 -18 336 -102 405 -137 104 -51 205 -121 349 -240 255 -209 369 -367 463 -637 35 -100 35 -100 33 -267 0 -99 3 -175 9 -187 14 -26 62 -41 132 -41 110 0 278 -47 435 -121 64 -30 95 -53 145 -106 57 -61 67 -78 93 -158 58 -179 45 -337 -38 -461 -34 -51 -72 -133 -96 -209 -32 -100 -102 -202 -168 -242 -19 -12 -49 -41 -66 -66 -36 -51 -118 -156 -160 -205 -38 -44 -71 -56 -108 -41 -15 6 -28 16 -28 21 0 6 51 63 113 127 111 116 131 140 228 275 66 93 180 329 214 444 24 81 27 105 23 195 -10 233 -124 354 -383 408 -263 54 -250 53 -312 40 -54 -11 -132 -44 -213 -91 -67 -39 -152 -20 -211 47 -16 19 -29 36 -27 38 2 2 57 15 123 30 182 41 171 28 179 210 14 335 -28 469 -207 663 -69 75 -149 168 -189 224 -15 20 -45 46 -65 59 -21 13 -64 44 -95 69 -225 180 -338 218 -758 256 -110 9 -188 21 -192 28 -15 22 -2 39 46 57 94 38 203 43 326 18z m-175 -1579 c61 -31 93 -89 102 -185 13 -144 -74 -250 -217 -262 -46 -4 -60 -1 -89 19 -19 12 -43 35 -54 49 -27 37 -57 170 -57 252 0 126 38 159 180 155 68 -2 96 -8 135 -28z m-713 -154 c56 -27 72 -70 72 -196 0 -116 -8 -142 -66 -197 -42 -41 -96 -63 -150 -63 -74 0 -133 52 -179 155 -53 119 12 278 128 315 43 14 154 6 195 -14z m842 -582 c28 -11 20 -69 -16 -110 -18 -20 -40 -57 -48 -83 -10 -29 -26 -51 -43 -61 -24 -13 -30 -13 -62 4 -58 32 -117 87 -136 130 -25 55 -24 65 7 77 34 12 64 -12 64 -51 0 -14 6 -35 14 -45 24 -33 64 -9 125 73 52 71 63 78 95 66z m-1061 -53 c16 -6 28 -21 32 -40 14 -64 77 -72 135 -17 19 19 50 41 68 50 32 16 32 16 42 -9 6 -15 10 -32 10 -39 0 -12 -67 -66 -176 -143 l-31 -22 -76 90 c-69 82 -75 92 -65 115 12 26 24 29 61 15z m1857 -153 c16 -28 25 -66 30 -119 8 -88 27 -125 137 -262 35 -43 63 -81 63 -86 0 -11 -55 -31 -86 -31 -61 0 -81 22 -158 178 -55 109 -80 200 -72 253 6 38 42 109 55 109 4 0 18 -19 31 -42z m-478 -140 c57 -36 93 -69 123 -109 52 -71 62 -114 40 -180 -17 -52 -28 -61 -40 -31 -7 18 -124 208 -221 357 -17 27 -18 28 -1 22 9 -3 54 -30 99 -59z m-167 -298 c27 -10 27 -11 10 -38 -35 -56 -85 -78 -124 -53 -11 7 -10 15 8 45 34 54 57 64 106 46z m-161 -281 c-22 -39 -44 -71 -49 -70 -6 0 -10 29 -10 63 l0 62 45 11 c25 7 47 10 49 9 2 -2 -14 -35 -35 -75z m3793 -21 c13 -15 22 -43 26 -81 5 -51 2 -66 -29 -132 -20 -44 -45 -82 -60 -92 -25 -16 -27 -16 -40 2 -19 26 -17 54 10 173 23 97 46 152 64 152 5 0 18 -10 29 -22z m518 -339 c25 -23 45 -50 45 -60 0 -17 -9 -19 -99 -19 -85 0 -100 2 -106 17 -4 13 6 30 39 60 25 24 52 43 61 43 8 0 36 -19 60 -41z"></path><path id="pEIumuVN8" d="M7572 2495 l-3 -96 32 -30 c18 -16 39 -29 48 -27 21 4 62 80 63 118 2 49 -55 112 -112 125 l-25 6 -3 -96z"></path><path id="pIGLvdHZn" d="M6860 2368 c-22 -33 -40 -72 -40 -85 0 -15 15 -40 41 -65 l40 -40 27 23 c61 54 66 81 27 144 -13 22 -29 50 -34 63 -6 12 -13 22 -16 22 -3 0 -23 -28 -45 -62z"></path><path id="po59Cxmor" d="M3198 5520 c-20 -11 -46 -32 -58 -47 -31 -39 -23 -125 19 -208 17 -33 38 -94 46 -135 9 -41 25 -94 38 -117 32 -62 151 -207 236 -289 l74 -71 -90 -89 c-49 -49 -108 -115 -131 -146 -44 -60 -57 -67 -84 -45 -15 11 -14 18 5 75 28 80 64 125 133 163 30 17 54 34 54 38 0 4 -17 16 -37 27 -25 13 -42 31 -48 50 -24 73 -52 78 -209 39 -104 -26 -161 -52 -398 -182 -81 -45 -165 -87 -185 -94 -21 -6 -50 -18 -65 -25 -25 -13 -28 -12 -38 5 -5 11 -10 22 -10 24 0 2 28 26 63 52 34 27 66 52 71 56 5 4 -8 37 -28 74 -66 117 -99 226 -104 345 l-4 105 -84 80 c-67 64 -82 84 -78 101 7 27 -18 76 -52 103 -23 18 -41 21 -116 21 -81 0 -92 2 -124 27 -25 19 -51 28 -88 31 -48 4 -57 1 -85 -24 -27 -25 -32 -36 -34 -85 -2 -54 0 -58 38 -96 25 -24 61 -80 94 -148 l55 -110 1 -115 c1 -105 4 -122 33 -194 18 -43 41 -90 51 -105 26 -37 125 -230 120 -234 -2 -2 -89 -47 -194 -99 -194 -97 -279 -142 -350 -186 -74 -46 -205 -143 -205 -153 0 -5 21 -20 48 -33 26 -13 64 -45 85 -70 49 -59 74 -60 134 -6 l43 41 333 -3 332 -3 115 -56 c133 -64 208 -122 285 -219 30 -38 55 -71 55 -74 0 -2 16 -33 36 -68 87 -153 105 -280 58 -416 -27 -76 -27 -76 -10 -147 9 -38 16 -85 16 -104 0 -33 -1 -33 -35 -28 -24 4 -50 20 -80 51 -25 24 -71 57 -102 73 -52 25 -68 27 -165 28 -123 1 -150 12 -108 46 59 48 99 59 220 59 129 0 171 15 191 67 23 60 -1 113 -142 324 -54 81 -108 168 -119 193 -21 43 -28 49 -139 102 -199 96 -246 109 -386 107 -81 -1 -134 -6 -164 -17 -24 -9 -59 -16 -78 -16 -48 0 -101 -27 -118 -61 -20 -37 -19 -115 1 -170 21 -58 29 -219 15 -293 -17 -93 -76 -201 -148 -273 -110 -110 -318 -223 -423 -231 -45 -3 -172 14 -313 43 -24 5 -18 -12 32 -78 59 -78 106 -174 140 -284 16 -54 55 -178 85 -276 31 -99 56 -197 56 -221 0 -52 25 -139 53 -186 55 -93 131 -202 154 -220 14 -11 54 -53 88 -93 35 -41 85 -90 111 -109 96 -71 262 -150 397 -190 72 -21 132 -40 134 -42 2 -1 10 -77 18 -167 20 -224 35 -358 42 -375 4 -12 97 -84 108 -84 2 0 16 22 30 50 22 43 25 62 25 150 0 92 1 100 19 100 11 0 23 -5 26 -10 3 -6 26 -10 50 -10 36 0 48 5 69 30 24 29 46 86 46 122 0 9 15 28 33 42 47 35 300 158 308 149 7 -8 104 -151 267 -393 46 -69 87 -126 92 -128 26 -10 50 108 50 244 -1 78 -6 104 -43 215 -24 69 -67 169 -96 223 -29 53 -71 152 -93 219 -36 106 -42 137 -46 233 -11 259 90 452 310 596 47 31 103 76 125 99 21 23 53 57 71 75 17 18 32 39 32 46 0 18 -96 173 -149 241 -25 32 -57 73 -71 91 -14 18 -44 55 -67 82 -125 149 -149 178 -163 197 -11 15 -17 62 -21 176 -9 223 6 286 86 365 23 23 50 53 60 69 21 33 14 44 -60 92 -27 17 -93 64 -145 104 -82 62 -109 76 -200 105 -58 19 -168 48 -245 66 -247 55 -400 93 -415 101 -28 15 41 32 147 37 274 12 675 -139 940 -355 46 -37 59 -44 72 -34 9 6 41 24 71 40 30 15 93 50 139 76 66 37 98 49 150 55 36 5 98 19 138 33 l71 25 28 -29 c36 -37 70 -37 121 0 23 16 64 41 91 55 36 18 59 39 77 69 33 58 32 81 -9 128 -33 39 -56 81 -151 284 l-47 99 11 86 c7 47 14 100 18 118 5 30 3 33 -15 30 -19 -3 -71 53 -235 255 l-49 59 40 42 c22 22 38 46 35 53 -2 6 0 14 6 17 16 10 -8 63 -40 91 -34 27 -116 55 -166 55 -18 0 -62 -10 -98 -22 l-66 -21 -27 25 c-69 65 -156 84 -224 48z m-854 -2863 c45 -35 83 -115 95 -202 9 -62 8 -75 -10 -112 -26 -54 -94 -114 -148 -130 -58 -18 -122 -16 -148 5 -21 16 -133 237 -133 261 0 6 5 11 10 11 6 0 8 15 4 39 -8 49 11 107 41 127 34 22 101 33 182 30 60 -2 78 -7 107 -29z m-797 -99 c26 -29 53 -82 92 -184 29 -75 31 -86 21 -130 -26 -117 -86 -181 -194 -205 -85 -19 -117 -3 -177 88 -54 83 -69 126 -69 193 2 135 124 260 255 260 41 0 56 -5 72 -22z m877 -734 c-67 -75 -118 -114 -148 -114 -23 0 -87 61 -114 109 l-23 41 25 0 c14 0 56 -11 93 -25 79 -30 107 -24 125 25 6 19 24 38 47 50 33 17 37 17 48 3 10 -13 2 -28 -53 -89z m-734 28 l23 -19 -45 -41 c-85 -79 -144 -120 -179 -127 -32 -6 -42 -1 -107 50 -40 31 -72 59 -72 64 0 18 27 31 65 31 31 0 47 -6 65 -25 13 -14 32 -25 43 -25 10 0 43 25 72 55 58 61 94 70 135 37z m1117 -276 c98 -105 140 -170 157 -245 l15 -63 -26 -24 c-31 -28 -32 -29 -62 -8 -20 14 -210 382 -211 407 0 4 13 7 29 7 23 0 43 -15 98 -74z m-162 -316 c23 -9 25 -13 15 -25 -7 -8 -16 -15 -21 -15 -4 0 -34 -15 -66 -34 -41 -24 -60 -31 -65 -23 -27 42 20 107 76 107 19 0 47 -5 61 -10z m-375 -250 c0 -55 -4 -100 -9 -100 -12 0 -39 42 -47 75 -7 27 30 125 48 125 4 0 8 -45 8 -100z m220 42 c0 -13 -63 -126 -74 -134 -22 -15 -26 -7 -26 57 0 70 -5 64 65 78 33 7 35 7 35 -1z"></path><path id="p1BQrnAobI" d="M2250 2623 c0 -5 -3 -50 -6 -101 l-5 -93 35 -35 c19 -19 39 -34 45 -34 14 0 61 82 61 107 0 44 -129 198 -130 156z"></path><path id="pYbBXr69i" d="M1472 2384 c-44 -89 -41 -122 14 -158 25 -17 27 -17 51 6 14 12 31 36 38 53 12 26 10 35 -15 85 -45 89 -51 90 -88 14z"></path><path id="p9FlxIOcr" d="M4101 4928 c-10 -27 -3 -48 38 -113 17 -27 31 -53 31 -57 0 -4 -11 -17 -24 -29 l-23 -20 27 -94 c25 -86 132 -307 168 -347 32 -37 107 -17 245 65 76 44 107 78 107 114 0 14 -20 62 -45 107 -49 90 -54 124 -30 183 21 49 12 82 -35 136 -57 64 -105 77 -296 77 -151 0 -155 -1 -163 -22z"></path><path id="pt1xUyN0q" d="M6805 4857 c-17 -13 -18 -27 -13 -189 6 -186 8 -195 69 -285 16 -23 44 -88 62 -145 19 -57 37 -102 41 -102 8 2 129 77 265 165 48 31 97 69 109 84 28 35 28 88 1 157 -11 29 -27 88 -35 132 -19 108 -39 146 -94 174 -41 20 -58 22 -215 22 -128 0 -176 -3 -190 -13z"></path><path id="pyRx2jdZn" d="M1098 3910 c-134 -33 -159 -44 -221 -99 -25 -21 -61 -41 -80 -45 -26 -5 -51 -23 -93 -69 -67 -72 -103 -145 -111 -222 -3 -30 -9 -55 -13 -55 -13 0 -50 -78 -50 -105 0 -15 13 -55 29 -89 16 -33 39 -83 50 -109 29 -68 104 -178 138 -203 55 -40 168 -92 242 -110 70 -16 79 -17 137 -1 43 11 82 31 130 68 38 28 80 56 94 62 34 15 165 102 217 144 112 90 142 198 108 391 -26 145 -57 196 -218 354 -124 123 -173 135 -359 88z m256 -478 c42 -51 44 -76 11 -117 -29 -36 -39 -32 -99 38 l-39 47 44 39 c24 21 45 38 45 38 1 -1 18 -22 38 -45z m-514 -64 c79 -48 81 -57 29 -106 -48 -46 -67 -50 -105 -26 -43 29 -72 116 -50 152 13 22 71 13 126 -20z"></path><path id="pbLzFUj2G" d="M3715 3922 c-102 -18 -204 -81 -326 -202 -99 -98 -152 -189 -180 -305 -20 -86 -20 -92 -5 -149 21 -75 133 -254 205 -329 33 -34 82 -71 120 -90 54 -27 74 -32 140 -32 57 0 87 5 121 21 25 12 79 30 120 40 49 12 107 38 167 74 77 46 99 66 138 120 133 189 140 206 132 329 -4 67 -14 109 -45 192 -55 146 -55 146 -127 180 -45 22 -71 42 -89 70 -43 65 -91 82 -231 83 -66 1 -129 0 -140 -2z m-232 -497 c19 -8 44 -26 56 -41 l20 -26 -21 -28 c-29 -40 -83 -68 -105 -54 -30 19 -54 60 -60 101 -5 38 -4 40 28 50 46 15 42 15 82 -2z m551 -16 c47 -37 52 -57 19 -91 -15 -16 -40 -36 -55 -44 -25 -13 -29 -12 -53 9 -27 23 -58 106 -47 124 19 29 100 30 136 2z"></path><path id="paTsdBi8B" d="M6490 3904 c-97 -20 -146 -41 -237 -101 -86 -56 -179 -150 -239 -240 -97 -147 -99 -341 -3 -510 97 -172 150 -222 265 -249 105 -24 154 -14 384 80 252 103 277 123 365 289 45 84 58 120 62 166 8 91 -31 188 -126 316 -21 28 -44 59 -52 71 -8 11 -42 52 -77 89 -62 68 -63 68 -145 86 -96 22 -111 22 -197 3z m277 -499 c20 -14 63 -75 63 -88 0 -11 -88 -47 -114 -47 -18 0 -33 12 -56 44 -36 53 -36 59 -8 86 26 24 84 27 115 5z m-539 -59 c26 -13 55 -33 65 -43 17 -19 16 -21 -28 -62 -24 -22 -51 -41 -58 -41 -43 0 -105 90 -91 133 14 44 44 47 112 13z"></path><path id="pGZPVzSr0" d="M3542 2349 c-60 -18 -217 -200 -281 -327 -72 -142 -92 -367 -51 -566 27 -131 56 -204 184 -451 73 -143 84 -293 30 -436 -27 -72 -28 -79 -27 -258 2 -158 4 -186 19 -202 35 -39 124 -11 196 62 21 22 44 39 51 39 14 0 87 79 120 130 12 19 37 44 55 57 33 22 57 28 222 57 169 30 415 182 499 307 38 56 91 196 91 238 0 30 -24 42 -132 67 -127 30 -254 84 -335 141 -143 100 -302 272 -360 388 -38 76 -115 290 -141 390 -19 77 -25 125 -24 210 0 159 -17 182 -116 154z m-50 -671 c6 -13 11 -50 10 -82 -2 -74 19 -135 98 -290 33 -66 60 -130 60 -142 0 -29 -29 -104 -40 -104 -9 0 -98 128 -125 179 -19 38 -60 135 -111 263 -37 95 -43 157 -18 182 10 10 33 16 64 16 41 0 51 -4 62 -22z"></path><path id="p5HQbX8ss" d="M922 2337 c-40 -15 -216 -204 -277 -297 -54 -83 -105 -240 -112 -342 -10 -135 21 -236 154 -508 135 -275 165 -365 165 -490 1 -57 -6 -93 -27 -150 -15 -41 -31 -102 -35 -135 -4 -33 -19 -89 -34 -124 -32 -80 -33 -105 -2 -136 29 -29 45 -26 156 32 41 22 107 52 145 68 39 16 82 37 97 47 14 10 29 18 33 18 4 0 25 16 46 35 53 47 106 73 213 101 99 25 130 37 242 90 164 78 248 170 329 365 l37 88 -19 26 c-18 25 -25 27 -113 30 -191 6 -352 96 -546 304 -133 142 -231 275 -274 372 -26 61 -55 216 -86 469 -8 70 -33 150 -47 149 -7 0 -27 -5 -45 -12z m-121 -654 c35 -30 117 -195 145 -292 9 -31 28 -81 42 -110 14 -32 25 -74 25 -100 0 -47 -25 -121 -41 -121 -15 0 -102 127 -131 192 -69 153 -110 326 -97 412 4 25 11 46 16 46 5 0 23 -12 41 -27z"></path><path id="p2WQ8Uem8" d="M6270 2305 c-123 -61 -212 -179 -326 -430 -89 -194 -87 -271 11 -500 24 -55 60 -129 80 -165 25 -44 41 -89 51 -142 8 -48 25 -98 45 -133 72 -128 89 -298 43 -433 -33 -94 -46 -159 -48 -234 -1 -50 3 -61 25 -84 31 -31 80 -34 144 -11 135 50 279 120 301 147 39 46 81 66 199 95 181 44 297 97 403 184 53 43 80 87 133 217 69 167 68 163 34 190 -17 13 -46 26 -65 30 -119 19 -162 35 -310 116 -188 104 -184 101 -210 154 -14 28 -48 73 -75 100 -83 81 -122 136 -170 236 -51 109 -81 214 -95 338 -22 196 -56 319 -94 349 -6 4 -40 -7 -76 -24z m-97 -627 c9 -7 34 -62 56 -123 21 -60 62 -166 91 -235 78 -187 82 -203 71 -233 -6 -15 -18 -27 -27 -27 -23 0 -73 56 -108 119 -25 47 -176 434 -176 452 0 3 9 18 21 33 22 28 46 33 72 14z"></path></g></g></svg>
